<svg version="1" xmlns="http://www.w3.org/2000/svg" width="285.333" height="285.333" viewBox="0 0 214.000000 214.000000"><path d="M80 10.1C40 18.7 9.7 49.7 2.9 88.8c-1.7 9.6-.6 32.9 2 42.6 2.3 8.8 9.3 24.1 14.2 31.3 16.2 23.7 45.1 39.6 78.8 43.4 31.1 3.6 64.5-9 80.8-30.5 8-10.5 15.2-28.5 15.3-37.9 0-3.8 12.2-29 16.7-34.5 1.9-2.4 3.3-4.5 3-4.8-.3-.3-2.7.6-5.4 1.9-2.6 1.3-8.6 3.7-13.3 5.2-4.7 1.5-9.9 3.6-11.5 4.6-3.5 2.1-6.7 7.3-9.5 15.5-2.6 7.5-2.6 9.7-.1 8.9 1.8-.5 2 0 2.3 4.6.3 5.7 2.2 7.6 3.1 3.2.9-3.8 2.2-5.7 3.6-4.9 3.3 2.1-1 12.6-5.1 12.6-3.7 0-8.4-3.5-11.1-8.2-3.5-6-4.2-10.6-2.3-15.3.9-2 1.6-4.1 1.6-4.6s-2.8-.9-6.2-.9c-8.2 0-12.7-1.3-17.4-5.1-10.9-8.7-23-13.3-49.3-18.8-28.6-6-38.8-10.2-48.7-20-2.5-2.4-4.8-4.1-5.2-3.7C37.6 75.1 45.7 87.7 53 95c9.9 9.9 17.4 13.6 39.9 19.5 9.5 2.5 18.9 5.4 21 6.4l3.6 1.9-5 .7c-7.5 1.2-17.8-.8-23.7-4.5-2.8-1.7-5.3-2.9-5.5-2.6-.3.3.7 2.6 2.2 5.1 4.7 8.2 15.8 13.9 34.5 17.9l6.5 1.4-6.5.1c-3.6 0-9.1-.5-12.2-1.3-7.6-1.8-7.7-.2-.5 5.5 9.9 8 22.3 11.7 34.5 10.5 4.2-.5 6.1-.3 5.7.3-.9 1.5-10.3 4.1-14.9 4.1-3.5 0-3.8.2-2.6 1.4 1.9 1.8 12 5.2 18.3 6.1 2.6.4 4.7 1.1 4.7 1.5 0 2.1-12.2 13-17.2 15.3-17.3 8.2-39.4 5.6-54.3-6.3-2.4-1.9-4.1-2.7-4.3-2-.5 1.4 5.6 8 11.3 12.2l4 3-4-.7c-6.2-1-18.3-5.3-23-8.1-16.9-9.9-24.8-25.6-27-53.8-.8-10.3-1.7-10.2-4.7.5-1.5 5.2-2.2 10.5-2.2 17.5l-.1 10.2-2.3-3.5c-6.6-9.6-9.6-21.1-9.4-35.8.2-20.9 7-40.1 18.1-51 4.6-4.4 5-5.5 2.1-5.5-3.4 0-9.9 3.8-14.7 8.6-5.1 5.1-5.1 4 0-6.1 4.4-8.9 9.3-15.1 16.5-21.1 13.3-11 28-16.2 41.6-14.9 5.2.5 6.7.4 6.4-.6-.7-2-7.5-5.1-12.5-5.7-5.7-.6-4.5-1.4 7.8-4.7 18.4-4.9 31.6-4.4 40 1.7 4.2 3 6.3 3.1 3.8.2-1.3-1.6-1.1-1.7 2.6-1 2.2.4 8.5 2.5 14.1 4.7 11.3 4.4 12.2 4.6 10.3 2.2C153.6 21.5 135 13.2 126 11c-12.8-3.2-33.6-3.6-46-.9z"/></svg>